<svg width="32" height="32" viewBox="0 0 32 32" fill="none" xmlns="http://www.w3.org/2000/svg">
<path d="M0 10C0 4.47715 4.47715 0 10 0H22C27.5228 0 32 4.47715 32 10V22C32 27.5228 27.5228 32 22 32H10C4.47715 32 0 27.5228 0 22V10Z" fill="url(#paint0_linear_2184_13207)"/>
<path fill-rule="evenodd" clip-rule="evenodd" d="M9 9H23C23.2652 9 23.5196 9.10536 23.7071 9.29289C23.8946 9.48043 24 9.73478 24 10V19C24 19.2652 23.8946 19.5196 23.7071 19.7071C23.5196 19.8946 23.2652 20 23 20H16.5V22H19.5394C19.5999 22 19.6598 22.0119 19.7157 22.0351C19.7716 22.0582 19.8223 22.0921 19.8651 22.1349C19.9079 22.1777 19.9418 22.2284 19.9649 22.2843C19.9881 22.3402 20 22.4001 20 22.4606V22.5394C20 22.6616 19.9515 22.7787 19.8651 22.8651C19.7787 22.9515 19.6616 23 19.5394 23H12.4606C12.3384 23 12.2213 22.9515 12.1349 22.8651C12.0485 22.7787 12 22.6616 12 22.5394V22.4606C12 22.4001 12.0119 22.3402 12.0351 22.2843C12.0582 22.2284 12.0921 22.1777 12.1349 22.1349C12.1777 22.0921 12.2284 22.0582 12.2843 22.0351C12.3402 22.0119 12.4001 22 12.4606 22H15.5V20H9C8.73478 20 8.48043 19.8946 8.29289 19.7071C8.10536 19.5196 8 19.2652 8 19V10C8 9.73478 8.10536 9.48043 8.29289 9.29289C8.48043 9.10536 8.73478 9 9 9ZM13.7256 18.2733C13.4585 18.4512 13.2498 18.704 13.1258 19H18.8742C18.7502 18.704 18.5415 18.4512 18.2744 18.2733C18.0073 18.0954 17.6936 18.0003 17.3727 18H14.6274C14.3064 18.0003 13.9927 18.0954 13.7256 18.2733ZM19.9162 19H23V10H9V19H12.0838C12.223 18.4302 12.5493 17.9235 13.0104 17.561C13.4715 17.1984 14.0408 17.0009 14.6274 17H17.3727C17.9592 17.0009 18.5286 17.1984 18.9896 17.561C19.4507 17.9235 19.777 18.4302 19.9162 19ZM17.3889 15.5787C16.9778 15.8534 16.4945 16 16 16C15.337 16 14.7011 15.7366 14.2322 15.2678C13.7634 14.7989 13.5 14.163 13.5 13.5C13.5 13.0055 13.6466 12.5222 13.9213 12.1111C14.196 11.7 14.5865 11.3795 15.0433 11.1903C15.5001 11.0011 16.0028 10.9516 16.4877 11.048C16.9727 11.1445 17.4181 11.3826 17.7678 11.7322C18.1174 12.0819 18.3555 12.5273 18.452 13.0123C18.5484 13.4972 18.4989 13.9999 18.3097 14.4567C18.1205 14.9135 17.8 15.304 17.3889 15.5787ZM16.8334 12.2528C16.5867 12.088 16.2967 12 16 12C15.6023 12.0005 15.221 12.1586 14.9398 12.4398C14.6586 12.721 14.5005 13.1023 14.5 13.5C14.5 13.7967 14.588 14.0867 14.7528 14.3334C14.9176 14.58 15.1519 14.7723 15.426 14.8858C15.7001 14.9994 16.0017 15.0291 16.2926 14.9712C16.5836 14.9133 16.8509 14.7704 17.0607 14.5607C17.2704 14.3509 17.4133 14.0836 17.4712 13.7926C17.5291 13.5017 17.4994 13.2001 17.3858 12.926C17.2723 12.6519 17.08 12.4176 16.8334 12.2528Z" fill="white"/>
<defs>
<linearGradient id="paint0_linear_2184_13207" x1="32" y1="32" x2="32" y2="0" gradientUnits="userSpaceOnUse">
<stop stop-color="#0095FF"/>
<stop offset="1" stop-color="#29DBFF"/>
</linearGradient>
</defs>
</svg>
