<svg width="20" height="18" viewBox="0 0 20 18" fill="none" xmlns="http://www.w3.org/2000/svg">
<path fill-rule="evenodd" clip-rule="evenodd" d="M1.25 0.25H18.75C19.0815 0.25 19.3995 0.381696 19.6339 0.616117C19.8683 0.850537 20 1.16848 20 1.5V12.75C20 13.0815 19.8683 13.3995 19.6339 13.6339C19.3995 13.8683 19.0815 14 18.75 14H10.625V16.5H14.4243C14.4999 16.5 14.5748 16.5149 14.6446 16.5438C14.7145 16.5727 14.7779 16.6152 14.8314 16.6686C14.8848 16.7221 14.9273 16.7855 14.9562 16.8554C14.9851 16.9252 15 17.0001 15 17.0757V17.1743C15 17.327 14.9393 17.4734 14.8314 17.5814C14.7234 17.6893 14.577 17.75 14.4243 17.75H5.57571C5.42303 17.75 5.27659 17.6893 5.16863 17.5814C5.06066 17.4734 5 17.327 5 17.1743V17.0757C5 17.0001 5.01488 16.9252 5.04381 16.8554C5.07274 16.7855 5.11515 16.7221 5.16861 16.6686C5.22207 16.6152 5.28554 16.5727 5.35539 16.5438C5.42524 16.5149 5.50011 16.5 5.57571 16.5H9.375V14H1.25C0.918479 14 0.600537 13.8683 0.366117 13.6339C0.131696 13.3995 0 13.0815 0 12.75V1.5C0 1.16848 0.131696 0.850537 0.366117 0.616117C0.600537 0.381696 0.918479 0.25 1.25 0.25ZM7.15703 11.8416C6.82312 12.064 6.56229 12.38 6.40724 12.75H13.5928C13.4377 12.38 13.1769 12.064 12.843 11.8416C12.5091 11.6193 12.117 11.5004 11.7158 11.5H8.28422C7.88305 11.5004 7.49093 11.6193 7.15703 11.8416ZM14.8952 12.75H18.75V1.5H1.25V12.75H5.10475C5.2788 12.0378 5.68661 11.4044 6.26298 10.9512C6.83935 10.498 7.55102 10.2511 8.28422 10.25H11.7158C12.449 10.2511 13.1607 10.498 13.7371 10.9512C14.3134 11.4044 14.7212 12.0378 14.8952 12.75ZM11.7362 8.47334C11.2223 8.81672 10.6181 9 10 9C9.1712 9 8.37634 8.67076 7.79029 8.08471C7.20424 7.49866 6.875 6.7038 6.875 5.875C6.875 5.25694 7.05828 4.65275 7.40166 4.13884C7.74504 3.62494 8.2331 3.2244 8.80411 2.98788C9.37513 2.75135 10.0035 2.68947 10.6097 2.81005C11.2158 2.93063 11.7727 3.22825 12.2097 3.66529C12.6467 4.10233 12.9444 4.65915 13.065 5.26534C13.1855 5.87153 13.1236 6.49987 12.8871 7.07089C12.6506 7.64191 12.2501 8.12996 11.7362 8.47334ZM11.0417 4.316C10.7334 4.10997 10.3708 4 10 4C9.50289 4.00057 9.02631 4.1983 8.6748 4.5498C8.3233 4.90131 8.12557 5.3779 8.125 5.875C8.125 6.24584 8.23497 6.60835 8.44099 6.9167C8.64702 7.22504 8.93986 7.46536 9.28247 7.60728C9.62508 7.74919 10.0021 7.78632 10.3658 7.71397C10.7295 7.64163 11.0636 7.46305 11.3258 7.20083C11.588 6.9386 11.7666 6.60451 11.839 6.2408C11.9113 5.87708 11.8742 5.50008 11.7323 5.15747C11.5904 4.81486 11.35 4.52202 11.0417 4.316Z" fill="white"/>
</svg>
