<svg width="32" height="32" viewBox="0 0 32 32" fill="none" xmlns="http://www.w3.org/2000/svg">
<rect width="32" height="32" rx="10" fill="url(#paint0_linear_4_1270)"/>
<path fill-rule="evenodd" clip-rule="evenodd" d="M24.9999 9C24.9999 8.44772 24.5522 8 23.9999 8H20.806V12.2295L23.9806 12.2299C24.3518 12.2299 24.7004 12.3299 24.9999 12.5047V9Z" fill="#6E93CE"/>
<path fill-rule="evenodd" clip-rule="evenodd" d="M20.2886 8H16.2055V12.2291L20.2886 12.2295V8Z" fill="#8FC996"/>
<path fill-rule="evenodd" clip-rule="evenodd" d="M15.6836 12.229V8H11.6049V10.0009C12.8089 10.0253 13.9463 10.5612 14.757 11.4972L15.352 12.229L15.6836 12.229Z" fill="#FFD16E"/>
<path fill-rule="evenodd" clip-rule="evenodd" d="M11.083 10H8.01937C7.64811 10 7.29957 10.1 7 10.2748V9C7 8.44772 7.44772 8 8 8H11.083V10Z" fill="#FF847B"/>
<path d="M25 14.2399C25 13.6802 24.5411 13.2299 23.9806 13.2299H14.8769L13.9811 12.128C13.3633 11.4154 12.4675 11 11.5188 11H8.01937C7.45894 11 7 11.4503 7 12.01V23.99C7 24.5497 7.45894 25 8.01937 25H23.9806C24.5455 25 25 24.5453 25 23.99C25 23.99 25 23.99 25 23.9856V14.2399Z" fill="url(#paint1_linear_4_1270)"/>
<path fill-rule="evenodd" clip-rule="evenodd" d="M15.3513 16.6055C15.4635 16.2635 15.7641 16.0277 16.1141 16.0046L16.5942 16L14.7769 21.3991C14.6647 21.7411 14.3641 21.9769 14.0141 22H13.5609L15.3513 16.6055ZM17.2224 22H16.7737L18.8333 16H20L17.9853 21.3991C17.8731 21.7411 17.5724 21.9769 17.2224 22ZM17.3795 16.6148C17.3795 16.3837 17.2494 16.171 17.0429 16.074L16.2083 18.5008V21.4176C16.2083 21.584 16.2756 21.7411 16.3923 21.8567L17.375 18.9908L17.3795 16.6148ZM13 16.0046H14.1622V18.8706L13.1571 21.8151C13.0583 21.7042 13 21.5562 13 21.4037V16.0046Z" fill="white"/>
<defs>
<linearGradient id="paint0_linear_4_1270" x1="32" y1="32" x2="32" y2="0" gradientUnits="userSpaceOnUse">
<stop stop-color="#EDF3F7"/>
<stop offset="1" stop-color="white"/>
</linearGradient>
<linearGradient id="paint1_linear_4_1270" x1="25" y1="25" x2="25" y2="11" gradientUnits="userSpaceOnUse">
<stop stop-color="#00B2FF"/>
<stop stop-color="#00A4FF"/>
<stop stop-color="#0099FF"/>
<stop stop-color="#0092FF"/>
<stop stop-color="#0090FF"/>
<stop offset="0.06" stop-color="#0095FF"/>
<stop offset="0.32" stop-color="#00A5FF"/>
<stop offset="0.61" stop-color="#00AFFF"/>
<stop offset="1" stop-color="#00B2FF"/>
</linearGradient>
</defs>
</svg>
